<svg viewBox="0 0 400 400" fill="none" xmlns="http://www.w3.org/2000/svg">
  <!-- Office Building -->
  <rect x="50" y="150" width="300" height="200" fill="#E5E7EB" stroke="#9CA3AF" stroke-width="2"/>
  <rect x="70" y="170" width="40" height="30" fill="#3B82F6"/>
  <rect x="130" y="170" width="40" height="30" fill="#3B82F6"/>
  <rect x="190" y="170" width="40" height="30" fill="#3B82F6"/>
  <rect x="250" y="170" width="40" height="30" fill="#3B82F6"/>
  <rect x="310" y="170" width="40" height="30" fill="#3B82F6"/>
  
  <!-- Person -->
  <circle cx="200" cy="120" r="20" fill="#F59E0B"/>
  <rect x="185" y="140" width="30" height="40" fill="#3B82F6" rx="5"/>
  <rect x="180" y="180" width="10" height="25" fill="#1F2937"/>
  <rect x="210" y="180" width="10" height="25" fill="#1F2937"/>
  <rect x="170" y="150" width="15" height="20" fill="#F59E0B"/>
  <rect x="215" y="150" width="15" height="20" fill="#F59E0B"/>
  
  <!-- Laptop -->
  <rect x="160" y="200" width="80" height="50" fill="#374151" rx="5"/>
  <rect x="165" y="205" width="70" height="40" fill="#60A5FA"/>
  
  <!-- Charts/Graphs -->
  <rect x="280" y="220" width="60" height="40" fill="#FFFFFF" stroke="#9CA3AF"/>
  <rect x="285" y="240" width="8" height="15" fill="#10B981"/>
  <rect x="295" y="235" width="8" height="20" fill="#3B82F6"/>
  <rect x="305" y="230" width="8" height="25" fill="#8B5CF6"/>
  <rect x="315" y="225" width="8" height="30" fill="#F59E0B"/>
</svg>